<?xml version="1.0" encoding="UTF-8" standalone="no"?><!DOCTYPE svg PUBLIC "-//W3C//DTD SVG 1.1//EN" "http://www.w3.org/Graphics/SVG/1.1/DTD/svg11.dtd"><svg width="100%" height="100%" viewBox="0 0 200 200" version="1.1" xmlns="http://www.w3.org/2000/svg" xmlns:xlink="http://www.w3.org/1999/xlink" xml:space="preserve" xmlns:serif="http://www.serif.com/" style="fill-rule:evenodd;clip-rule:evenodd;stroke-linejoin:round;stroke-miterlimit:2;"><path d="M132.426,0c-7.695,0 -13.941,6.247 -13.941,13.941l0,172.118c0,7.694 6.246,13.941 13.941,13.941l27.881,0c7.694,0 13.941,-6.247 13.941,-13.941l0,-172.118c0,-7.694 -6.247,-13.941 -13.941,-13.941l-27.881,0Z"/><path d="M39.693,0c-7.694,0 -13.941,6.247 -13.941,13.941l0,172.118c0,7.694 6.247,13.941 13.941,13.941l27.881,0c7.695,0 13.941,-6.247 13.941,-13.941l0,-172.118c0,-7.694 -6.246,-13.941 -13.941,-13.941l-27.881,0Z"/></svg>