<?xml version="1.0" encoding="UTF-8" standalone="no"?><!DOCTYPE svg PUBLIC "-//W3C//DTD SVG 1.1//EN" "http://www.w3.org/Graphics/SVG/1.1/DTD/svg11.dtd"><svg width="100%" height="100%" viewBox="0 0 200 200" version="1.1" xmlns="http://www.w3.org/2000/svg" xmlns:xlink="http://www.w3.org/1999/xlink" xml:space="preserve" xmlns:serif="http://www.serif.com/" style="fill-rule:evenodd;clip-rule:evenodd;stroke-linejoin:round;stroke-miterlimit:2;"><path d="M200,88.584c0,-5.101 -4.141,-9.243 -9.242,-9.243l-181.516,0c-5.101,0 -9.242,4.142 -9.242,9.243l0,18.485c0,5.101 4.141,9.242 9.242,9.242l181.516,0c5.101,0 9.242,-4.141 9.242,-9.242l0,-18.485Z"/><path d="M200,9.242c0,-5.101 -4.141,-9.242 -9.242,-9.242l-181.516,0c-5.101,0 -9.242,4.141 -9.242,9.242l0,18.485c0,5.101 4.141,9.243 9.242,9.243l181.516,0c5.101,0 9.242,-4.142 9.242,-9.243l0,-18.485Z"/><path d="M200,172.273c0,-5.101 -4.141,-9.243 -9.242,-9.243l-181.516,0c-5.101,0 -9.242,4.142 -9.242,9.243l0,18.485c0,5.101 4.141,9.242 9.242,9.242l181.516,0c5.101,0 9.242,-4.141 9.242,-9.242l0,-18.485Z"/></svg>