<?xml version="1.0" encoding="UTF-8" standalone="no"?><!DOCTYPE svg PUBLIC "-//W3C//DTD SVG 1.1//EN" "http://www.w3.org/Graphics/SVG/1.1/DTD/svg11.dtd"><svg width="100%" height="100%" viewBox="0 0 200 200" version="1.1" xmlns="http://www.w3.org/2000/svg" xmlns:xlink="http://www.w3.org/1999/xlink" xml:space="preserve" xmlns:serif="http://www.serif.com/" style="fill-rule:evenodd;clip-rule:evenodd;stroke-linejoin:round;stroke-miterlimit:2;"><g><path d="M197.892,93.533c0,-3.27 -2.655,-5.925 -5.925,-5.925l-169.059,0c-3.27,0 -5.925,2.655 -5.925,5.925l0,11.85c0,3.27 2.655,5.925 5.925,5.925l169.059,0c3.27,0 5.925,-2.655 5.925,-5.925l0,-11.85Z"/><path d="M94.214,12.951c-2.024,-2.024 -5.31,-2.024 -7.334,0l-83.254,83.254c-2.024,2.024 -2.024,5.311 0,7.335l7.334,7.334c2.024,2.024 5.311,2.024 7.335,0l83.254,-83.254c2.024,-2.024 2.024,-5.31 0,-7.334l-7.335,-7.335Z"/><path d="M101.549,179.714c2.024,-2.024 2.024,-5.31 0,-7.334l-83.254,-83.254c-2.024,-2.024 -5.311,-2.024 -7.335,0l-7.334,7.334c-2.024,2.024 -2.024,5.311 0,7.335l83.254,83.254c2.024,2.024 5.31,2.024 7.334,0l7.335,-7.335Z"/></g></svg>