<?xml version="1.0" encoding="UTF-8" standalone="no"?><!DOCTYPE svg PUBLIC "-//W3C//DTD SVG 1.1//EN" "http://www.w3.org/Graphics/SVG/1.1/DTD/svg11.dtd"><svg width="100%" height="100%" viewBox="0 0 512 512" version="1.1" xmlns="http://www.w3.org/2000/svg" xmlns:xlink="http://www.w3.org/1999/xlink" xml:space="preserve" xmlns:serif="http://www.serif.com/" style="fill-rule:evenodd;clip-rule:evenodd;stroke-linecap:round;stroke-linejoin:round;stroke-miterlimit:1.5;"><g><g><g><path d="M418.576,428.175l-10.514,27.338c-5.906,15.028 -23.827,24.173 -39.926,18.883c-0.389,-0.128 -0.774,-0.266 -1.159,-0.406c-71.745,-27.164 -143.148,-55.225 -214.722,-82.839c-15.006,-5.897 -24.173,-23.827 -18.882,-39.926c0.128,-0.389 0.265,-0.774 0.405,-1.158c38.83,-102.567 78.949,-204.64 118.425,-306.96c5.958,-15.158 24.27,-24.249 40.312,-18.752c0.369,0.126 0.734,0.261 1.098,0.398l165.974,64.353l-17.278,13.734l-155.596,-60.03c-6.2,-2.345 -13.841,0.791 -16.437,7.158c-40.107,102.024 -79.567,204.304 -118.377,306.828c-2.245,6.167 0.93,13.719 7.217,16.283c71.354,28.049 142.887,55.647 214.591,82.79c6.214,2.263 13.82,-0.952 16.343,-7.37l8.149,-21.088c6.758,0.907 13.591,1.158 20.377,0.764Zm66.921,-174.023c-4.691,-4.805 -9.829,-9.156 -15.334,-12.964l14.972,-38.742l18.568,4.363l-18.206,47.343Z"/><path d="M484.836,201.858c0.498,-1.157 0.609,-2.481 0.199,-3.702c-10.332,-29.535 -20.481,-59.143 -31.559,-88.406c-0.537,-1.366 -1.638,-2.466 -3.029,-2.997c-0.268,-0.099 -0.544,-0.176 -0.824,-0.229l6.98,-18.093c0.214,0.072 0.426,0.147 0.638,0.225c0.274,0.105 0.274,0.104 0.546,0.212c6.315,2.588 11.408,7.811 13.834,14.216c10.719,29.459 21.08,59.047 31.618,88.571c1.942,5.553 1.633,11.678 -0.506,17.108l-17.897,-6.905Z"/><path d="M488.979,222.374l-1.315,-0.505c0,0 -42.14,-16.348 -63.225,-24.483c-11.49,-4.516 -18.457,-18.242 -14.421,-30.524c0.097,-0.296 0.202,-0.59 0.309,-0.883c9.266,-24.489 28.227,-73.301 28.227,-73.301c0,0 1.197,-3.085 2.915,-7.516l17.89,6.902c-2.029,5.148 -3.485,8.839 -3.485,8.839c0,0 -18.675,47.772 -27.449,71.868c-0.88,2.517 0.47,5.56 2.966,6.578c20.88,8.208 62.693,24.502 62.693,24.502c0,0 0.659,0.249 1.782,0.671l-6.887,17.852Z"/></g><g><path d="M378.498,213.33l-104.546,-40.334c-2.072,-0.924 -1.392,-0.71 -1.936,-1.079l-0.768,-0.607c-0.835,-0.769 -0.441,-0.323 -1.301,-1.386l-0.544,-0.781c-0.565,-0.95 -0.32,-0.426 -0.83,-1.653l-0.304,-0.912c-0.272,-1.071 -0.187,-0.491 -0.329,-1.841l-0.031,-0.969c0.048,-1.156 -0.041,-0.554 0.226,-1.931c0,0 0.545,-1.77 0.723,-2.153c0.491,-1.054 0.184,-0.533 0.968,-1.693l0.615,-0.777c0.769,-0.835 0.329,-0.444 1.38,-1.295l0.779,-0.543c0.962,-0.573 0.436,-0.326 1.664,-0.835l0.9,-0.301c1.073,-0.274 0.491,-0.188 1.847,-0.331l0.969,-0.031c1.156,0.048 0.554,-0.041 1.931,0.226c0,0 0.537,0.124 1.198,0.341l104.546,40.335c0.079,0.035 0.159,0.07 0.238,0.106c1.049,0.499 0.531,0.182 1.692,0.967l0.779,0.617c0.83,0.764 0.439,0.324 1.291,1.375l0.549,0.787c0.565,0.95 0.32,0.425 0.832,1.659l0.3,0.9c0.277,1.086 0.19,0.508 0.331,1.844l0.031,0.982c-0.047,1.127 0.045,0.52 -0.226,1.92c0,0 -0.545,1.771 -0.723,2.155c-0.491,1.053 -0.178,0.526 -0.977,1.704l-0.603,0.762c-0.769,0.836 -0.33,0.445 -1.378,1.294l-0.789,0.551c-0.949,0.564 -0.425,0.319 -1.659,0.832l-0.9,0.3c-1.082,0.276 -0.503,0.189 -1.847,0.331l-0.976,0.031c-1.138,-0.048 -0.536,0.043 -1.924,-0.226c0,0 -0.536,-0.124 -1.198,-0.341Z"/><path d="M348.967,245.738c-5.702,4.56 -10.924,9.701 -15.563,15.307l-81.318,-31.373c-2.073,-0.923 -1.39,-0.708 -1.931,-1.074l-0.773,-0.612c-0.836,-0.769 -0.442,-0.323 -1.305,-1.391l-0.54,-0.775c-0.565,-0.95 -0.321,-0.428 -0.83,-1.653l-0.304,-0.913c-0.272,-1.066 -0.186,-0.481 -0.329,-1.841l-0.032,-0.968c0.049,-1.157 -0.041,-0.554 0.227,-1.932c0,0 0.545,-1.771 0.723,-2.152c0.49,-1.053 0.182,-0.532 0.968,-1.693l0.617,-0.779c0.764,-0.83 0.32,-0.438 1.381,-1.296l0.775,-0.54c0.963,-0.573 0.437,-0.327 1.664,-0.836l0.901,-0.3c1.067,-0.273 0.48,-0.187 1.847,-0.331l0.976,-0.031c1.147,0.048 0.547,-0.041 1.924,0.226c0,0 0.536,0.123 1.198,0.341l89.724,34.616Z"/><path d="M314.157,296.567c-0.657,2.156 -1.24,4.336 -1.746,6.537c-1.013,4.413 -1.709,8.852 -2.102,13.29l-79.803,-30.789c-2.072,-0.923 -1.39,-0.708 -1.93,-1.073l-0.773,-0.612c-0.837,-0.77 -0.442,-0.323 -1.306,-1.392l-0.539,-0.775c-0.565,-0.95 -0.321,-0.427 -0.83,-1.653l-0.304,-0.913c-0.272,-1.066 -0.187,-0.487 -0.33,-1.841l-0.031,-0.968c0.048,-1.155 -0.042,-0.551 0.226,-1.932c0,0 0.545,-1.769 0.724,-2.153c0.489,-1.052 0.18,-0.527 0.967,-1.692l0.617,-0.779c0.765,-0.83 0.322,-0.438 1.381,-1.296l0.776,-0.54c0.961,-0.572 0.439,-0.327 1.653,-0.831l0.924,-0.308c1.052,-0.268 0.468,-0.183 1.835,-0.328l0.975,-0.031c1.148,0.048 0.547,-0.041 1.925,0.226c0,0 0.536,0.123 1.197,0.341l76.494,29.512Z"/><path d="M317.107,362.984c2.123,5.444 4.689,10.704 7.661,15.711c-0.087,0.126 -0.203,0.295 -0.364,0.532l-0.603,0.762c-0.77,0.837 -0.328,0.444 -1.381,1.297l-0.786,0.548c-0.949,0.564 -0.424,0.319 -1.658,0.832l-0.901,0.3c-1.075,0.274 -0.493,0.188 -1.847,0.331l-0.976,0.031c-1.147,-0.048 -0.548,0.041 -1.924,-0.226c0,0 -0.536,-0.123 -1.198,-0.341l-104.546,-40.334c-2.072,-0.924 -1.39,-0.709 -1.93,-1.074l-0.774,-0.612c-0.836,-0.769 -0.441,-0.323 -1.305,-1.391l-0.54,-0.776c-0.564,-0.949 -0.32,-0.426 -0.829,-1.653l-0.305,-0.912c-0.272,-1.068 -0.186,-0.484 -0.329,-1.841l-0.031,-0.969c0.048,-1.155 -0.041,-0.554 0.226,-1.931c0,0 0.546,-1.771 0.723,-2.153c0.49,-1.053 0.182,-0.531 0.968,-1.693l0.617,-0.779c0.765,-0.83 0.321,-0.438 1.381,-1.295l0.776,-0.541c0.962,-0.573 0.437,-0.326 1.664,-0.835l0.9,-0.3c1.067,-0.273 0.485,-0.187 1.847,-0.332l0.976,-0.031c1.147,0.049 0.547,-0.041 1.925,0.227c0,0 0.536,0.123 1.197,0.34l101.366,39.108Z"/></g><g><path d="M440.461,254.15c39.814,15.36 59.666,60.154 44.306,99.968c-15.36,39.813 -60.154,59.666 -99.967,44.305c-39.814,-15.36 -59.666,-60.154 -44.306,-99.967c15.36,-39.813 60.154,-59.666 99.967,-44.306Z" style="fill:none;stroke:#000;stroke-width:20px;"/><path d="M449.233,404.203l-3.949,1.75l9.918,22.377l3.949,-1.75l-9.918,-22.377Z" style="fill:none;stroke:#000;stroke-width:20px;"/><path d="M467.126,422.018l-20.66,9.156l25.744,58.087l20.66,-9.156l-25.744,-58.087Z" style="fill:none;stroke:#000;stroke-width:20px;"/><path d="M477.065,469.17l-17.324,-39.089l-2.341,1.038l17.324,39.089l2.341,-1.038Z" style="fill:none;stroke:#000;stroke-width:20px;"/></g></g><path d="M97.589,422.685l-73.224,0c-2.235,-0.427 -2.964,-0.241 -4.865,-1.91c-1.415,-1.241 -2.467,-2.991 -3.007,-5c-0.393,-1.46 -0.516,-4.205 -0.406,-5.775c0.391,-5.573 2.809,-8.368 5.72,-9.511c0.821,-0.322 1.705,-0.326 2.558,-0.489l73.224,0c0.853,0.163 1.706,0.326 2.558,0.489c2.017,1.242 2.758,1.336 4.139,3.633c1.195,1.987 1.413,3.487 1.581,5.878c0.11,1.57 -0.012,4.315 -0.405,5.775c-0.54,2.009 -1.593,3.759 -3.007,5c-1.901,1.669 -2.63,1.483 -4.866,1.91Zm109.54,0l-78.982,0c-1.156,-0.163 -2.355,-0.167 -3.469,-0.489c-3.948,-1.143 -7.226,-3.938 -7.756,-9.511c-0.149,-1.57 0.017,-4.315 0.55,-5.775c0.732,-2.009 2.16,-3.759 4.077,-5c2.579,-1.669 3.567,-1.482 6.598,-1.91l22.221,0l56.761,22.685Zm-82.123,-77.021c-3.99,7.964 -4.256,15.76 -3.147,22.45l-27.275,0.235c-1.03,-0.163 -2.098,-0.167 -3.09,-0.49c-3.517,-1.142 -6.437,-3.938 -6.91,-9.51c-0.133,-1.57 0.015,-4.316 0.49,-5.776c0.652,-2.008 1.924,-3.758 3.632,-5c2.298,-1.669 3.178,-1.482 5.878,-1.909l30.422,0Zm-94.462,-52.678l-13.029,0c-2.7,-0.428 -3.581,-0.241 -5.878,-1.91c-1.708,-1.241 -2.98,-2.991 -3.633,-5c-0.474,-1.46 -0.622,-4.205 -0.489,-5.775c0.472,-5.573 3.392,-8.368 6.91,-9.511c0.992,-0.322 2.06,-0.326 3.09,-0.489l13.029,0c1.03,0.163 2.06,0.326 3.09,0.489c2.436,1.242 3.331,1.336 5,3.633c1.444,1.987 1.707,3.487 1.91,5.878c0.133,1.57 -0.015,4.315 -0.49,5.775c-0.652,2.009 -1.924,3.759 -3.632,5c-2.297,1.669 -3.177,1.482 -5.878,1.91Zm114.516,0l-83.724,0c-1.03,-0.163 -2.098,-0.167 -3.09,-0.489c-3.518,-1.143 -6.438,-3.938 -6.91,-9.511c-0.133,-1.57 0.015,-4.315 0.489,-5.775c0.653,-2.009 1.925,-3.759 3.633,-5c2.297,-1.669 3.177,-1.482 5.878,-1.91l92.79,0l-9.066,22.685Zm30.773,-77l-63.318,0c-2.7,-0.428 -3.581,-0.241 -5.878,-1.91c-1.708,-1.241 -2.98,-2.991 -3.633,-5c-0.474,-1.46 -0.622,-4.205 -0.489,-5.775c0.472,-5.573 3.392,-8.368 6.91,-9.511c0.992,-0.322 2.06,-0.326 3.09,-0.489l72.385,0l-9.067,22.685Zm-95.507,0l-62.811,0c-1.03,-0.163 -2.098,-0.167 -3.09,-0.489c-3.518,-1.143 -6.438,-3.938 -6.91,-9.511c-0.133,-1.57 0.015,-4.315 0.489,-5.775c0.653,-2.009 1.925,-3.759 3.633,-5c2.297,-1.669 3.178,-1.482 5.878,-1.91l62.811,0c1.03,0.163 2.061,0.326 3.091,0.489c2.436,1.242 3.331,1.336 5,3.633c1.443,1.987 1.707,3.487 1.909,5.878c0.133,1.57 -0.015,4.315 -0.489,5.775c-0.653,2.009 -1.924,3.759 -3.633,5c-2.296,1.669 -3.177,1.482 -5.878,1.91Zm123.081,-68.993l-161.068,0c-1.03,-0.163 -2.098,-0.167 -3.09,-0.489c-3.518,-1.143 -6.438,-3.938 -6.91,-9.511c-0.133,-1.57 0.015,-4.315 0.489,-5.775c0.653,-2.009 1.925,-3.759 3.633,-5c2.297,-1.669 3.177,-1.482 5.878,-1.91l170.135,0l-9.067,22.685Z"/></g></svg>